<svg xmlns="http://www.w3.org/2000/svg" xmlns:xlink="http://www.w3.org/1999/xlink" x="0px" y="0px" viewBox="0 0 192.15 62.94" style="enable-background:new 0 0 192.15 62.94;" xml:space="preserve"><style type="text/css">	.thazul0{fill:#324093;}</style><defs></defs><g>	<g>		<circle class="thazul0" cx="173.14" cy="8.93" r="8.63"></circle>		<circle class="thazul0" cx="187.84" cy="4.31" r="4.31"></circle>		<path class="thazul0" d="M0,34.73l6.28-1.01v6.54h7.55v5.23H6.28v7.8c0,1.32,0.23,2.37,0.69,3.16c0.46,0.79,1.4,1.18,2.8,1.18   c0.7,0,1.4-0.07,2.09-0.19c0.67-0.12,1.33-0.3,1.96-0.54l0.88,4.89c-0.82,0.33-1.67,0.6-2.53,0.81c-1.12,0.24-2.27,0.36-3.41,0.34   c-1.71,0-3.13-0.23-4.26-0.69c-1.05-0.41-1.98-1.08-2.7-1.94c-0.7-0.88-1.18-1.91-1.41-3.01c-0.28-1.29-0.41-2.6-0.39-3.92V34.73z   "></path>		<path class="thazul0" d="M18.92,62.93v-31.7l6.28-1.01v10.62c0.53-0.17,1.07-0.3,1.62-0.4c0.63-0.12,1.27-0.19,1.92-0.19   c1.8,0,3.3,0.25,4.49,0.74c1.12,0.44,2.11,1.16,2.86,2.09c0.74,0.94,1.26,2.04,1.52,3.2c0.31,1.36,0.46,2.74,0.44,4.13v12.52   h-6.27V51.17c0-2.02-0.26-3.45-0.78-4.3c-0.52-0.84-1.49-1.26-2.89-1.26c-0.53,0-1.06,0.05-1.58,0.15   c-0.49,0.1-0.93,0.21-1.33,0.32v16.86H18.92z"></path>		<path class="thazul0" d="M50.63,34.35c0,1.15-0.37,2.06-1.12,2.72c-1.51,1.32-3.76,1.32-5.27,0c-0.75-0.66-1.12-1.57-1.12-2.72   s0.37-2.06,1.12-2.73c1.51-1.32,3.76-1.32,5.27,0C50.26,32.29,50.63,33.2,50.63,34.35z M50.04,62.93h-6.28V40.77h6.28V62.93z"></path>		<path class="thazul0" d="M55.95,41.52c1.36-0.37,2.74-0.66,4.13-0.86c1.76-0.27,3.53-0.41,5.31-0.4c1.88,0,3.45,0.25,4.7,0.74   c1.16,0.42,2.18,1.14,2.97,2.09c0.75,0.94,1.28,2.03,1.56,3.2c0.32,1.35,0.48,2.74,0.46,4.13v12.52H68.8V51.17   c0-2.02-0.27-3.45-0.81-4.3c-0.54-0.84-1.53-1.26-2.99-1.26c-0.45,0-0.93,0.02-1.43,0.06c-0.51,0.04-0.96,0.09-1.35,0.15v17.11   h-6.26V41.52z"></path>		<path class="thazul0" d="M87.05,48.72c0.62-0.67,1.25-1.37,1.92-2.09c0.66-0.73,1.3-1.45,1.92-2.16c0.62-0.71,1.2-1.39,1.75-2.03   c0.55-0.64,1.02-1.2,1.41-1.68h7.47c-1.49,1.71-2.95,3.34-4.36,4.9c-1.42,1.56-2.97,3.16-4.66,4.82c0.93,0.85,1.8,1.76,2.61,2.72   c0.9,1.05,1.77,2.15,2.61,3.27s1.61,2.25,2.32,3.38c0.7,1.12,1.29,2.15,1.77,3.08h-7.22c-0.45-0.73-0.96-1.54-1.54-2.43   c-0.57-0.89-1.18-1.77-1.83-2.66c-0.65-0.89-1.33-1.74-2.04-2.56c-0.65-0.75-1.36-1.44-2.12-2.07v9.73h-6.28V31.23l6.28-1.01   L87.05,48.72z"></path>		<path class="thazul0" d="M75.1,3.72c0,1.15-0.37,2.06-1.12,2.72c-1.51,1.32-3.76,1.32-5.27,0c-0.75-0.66-1.12-1.57-1.12-2.72   s0.37-2.06,1.12-2.73c1.51-1.32,3.76-1.32,5.27,0C74.73,1.66,75.1,2.57,75.1,3.72z M74.51,32.3h-6.28V10.14h6.28V32.3z"></path>		<path class="thazul0" d="M80.74,3.15c1.36-0.37,2.73-0.66,4.12-0.86c1.76-0.27,3.54-0.4,5.32-0.39c1.88,0,3.45,0.25,4.7,0.74   c1.16,0.42,2.18,1.14,2.97,2.09c0.75,0.94,1.29,2.03,1.56,3.2c0.32,1.35,0.48,2.74,0.46,4.13v12.51H93.6V12.8   c0-2.02-0.27-3.45-0.81-4.3c-0.54-0.85-1.54-1.27-2.99-1.26c-0.45,0-0.93,0.02-1.43,0.06c-0.51,0.04-0.95,0.09-1.35,0.15v17.12   h-6.27V3.15z"></path>		<path class="thazul0" d="M120.54,34.51c-0.38,0-0.76,0.02-1.14,0.07c-0.33,0.04-0.65,0.13-0.94,0.27c-0.25,0.12-0.47,0.31-0.64,0.54   c-0.16,0.26-0.24,0.56-0.23,0.87c0,0.68,0.23,1.15,0.68,1.41c0.58,0.29,1.22,0.42,1.87,0.39c0.42,0,0.83,0,1.22-0.03   c0.31-0.01,0.62-0.04,0.93-0.09v-3.26c-0.17-0.04-0.44-0.08-0.78-0.12C121.18,34.53,120.86,34.51,120.54,34.51z"></path>		<path class="thazul0" d="M137.43,0.49c-17.24,0-31.22,13.97-31.22,31.22c0,17.24,13.97,31.22,31.22,31.22   c17.24,0,31.22-13.97,31.22-31.22c0,0,0,0,0,0C168.65,14.47,154.67,0.5,137.43,0.49z M126.42,40.65   c-0.62,0.14-1.48,0.29-2.58,0.48c-1.32,0.2-2.66,0.29-4,0.27c-0.9,0-1.8-0.09-2.68-0.27c-0.74-0.15-1.44-0.44-2.07-0.86   c-0.58-0.39-1.04-0.92-1.33-1.55c-0.33-0.74-0.49-1.54-0.46-2.35c-0.02-0.79,0.16-1.57,0.54-2.26c0.35-0.61,0.84-1.11,1.44-1.48   c0.63-0.39,1.33-0.66,2.06-0.81c0.79-0.15,1.6-0.22,2.41-0.21c0.5,0,1,0.02,1.49,0.07c0.36,0.04,0.71,0.1,1.06,0.19v-0.41   c0.03-0.66-0.21-1.29-0.66-1.77c-0.45-0.45-1.22-0.67-2.32-0.67c-0.72,0-1.45,0.05-2.16,0.16c-0.63,0.09-1.25,0.24-1.85,0.45   l-0.54-3.48c0.25-0.08,0.56-0.16,0.94-0.25s0.79-0.16,1.23-0.23s0.91-0.12,1.4-0.18c0.49-0.05,0.99-0.07,1.49-0.07   c1.07-0.03,2.14,0.11,3.16,0.42c0.77,0.24,1.48,0.67,2.04,1.25c0.52,0.56,0.89,1.23,1.08,1.97c0.22,0.84,0.33,1.71,0.32,2.58   L126.42,40.65z M139.93,41.09h-12.61v-2.55c0.41-0.69,0.89-1.44,1.46-2.24c0.57-0.8,1.17-1.61,1.8-2.43   c0.63-0.81,1.25-1.6,1.87-2.36c0.62-0.76,1.19-1.45,1.71-2.07h-6.49v-3.58h12.12v2.9l-1.41,1.56c-0.59,0.66-1.22,1.38-1.89,2.16   c-0.67,0.79-1.35,1.62-2.05,2.49c-0.69,0.87-1.31,1.71-1.87,2.52h7.38L139.93,41.09z M153.99,40.57   c-0.93,0.26-1.88,0.45-2.84,0.59c-1.21,0.19-2.43,0.28-3.65,0.27c-1.1,0.03-2.21-0.14-3.24-0.52c-0.79-0.3-1.49-0.8-2.04-1.45   c-0.52-0.66-0.89-1.43-1.08-2.25c-0.22-0.94-0.32-1.9-0.32-2.87v-8.5h4.32v7.97c0,1.39,0.18,2.4,0.54,3.02   c0.37,0.62,1.05,0.93,2.06,0.93c0.31,0,0.64,0,0.99-0.04c0.35-0.04,0.66-0.06,0.93-0.1V25.85h4.32L153.99,40.57z M157.92,40.97   c-0.69-0.2-1.33-0.56-1.85-1.06c-0.46-0.45-0.78-1.03-0.93-1.65c-0.17-0.72-0.26-1.45-0.25-2.19V19.29l4.32-0.7v16.61   c0,0.35,0.03,0.7,0.09,1.04c0.05,0.28,0.16,0.55,0.34,0.78c0.19,0.23,0.43,0.41,0.71,0.52c0.4,0.16,0.82,0.25,1.25,0.27   l-0.61,3.56C159.94,41.4,158.91,41.26,157.92,40.97L157.92,40.97z"></path>	</g></g></svg>